<svg xmlns="http://www.w3.org/2000/svg" width="700.0" height="700.0" viewBox="0 0 700.0 700.0">
<rect width="100%" height="100%" fill="white"/>
<circle cx="150.00" cy="550.00" r="100.00" fill="none" stroke="#cccccc" stroke-width="1"/>
<circle cx="550.00" cy="550.00" r="100.00" fill="none" stroke="#cccccc" stroke-width="1"/>
<circle cx="550.00" cy="150.00" r="100.00" fill="none" stroke="#cccccc" stroke-width="1"/>
<circle cx="150.00" cy="150.00" r="100.00" fill="none" stroke="#cccccc" stroke-width="1"/>
<line x1="150.00" y1="650.00" x2="550.00" y2="650.00" stroke="#1f4fff" stroke-width="2"/>
<line x1="650.00" y1="550.00" x2="650.00" y2="150.00" stroke="#1f4fff" stroke-width="2"/>
<line x1="550.00" y1="50.00" x2="150.00" y2="50.00" stroke="#1f4fff" stroke-width="2"/>
<line x1="50.00" y1="150.00" x2="50.00" y2="550.00" stroke="#1f4fff" stroke-width="2"/>
<polyline points="50.00,550.00 50.05,553.27 50.21,556.54 50.48,559.80 50.86,563.05 51.34,566.29 51.92,569.51 52.61,572.71 53.41,575.88 54.31,579.03 55.31,582.14 56.41,585.23 57.61,588.27 58.91,591.27 60.31,594.23 61.81,597.14 63.40,600.00 65.08,602.81 66.85,605.56 68.72,608.25 70.66,610.88 72.70,613.44 74.82,615.93 77.01,618.36 79.29,620.71 81.64,622.99 84.07,625.18 86.56,627.30 89.12,629.34 91.75,631.28 94.44,633.15 97.19,634.92 100.00,636.60 102.86,638.19 105.77,639.69 108.73,641.09 111.73,642.39 114.77,643.59 117.86,644.69 120.97,645.69 124.12,646.59 127.29,647.39 130.49,648.08 133.71,648.66 136.95,649.14 140.20,649.52 143.46,649.79 146.73,649.95 150.00,650.00" fill="none" stroke="#1f4fff" stroke-width="2"/>
<polyline points="550.00,650.00 553.27,649.95 556.54,649.79 559.80,649.52 563.05,649.14 566.29,648.66 569.51,648.08 572.71,647.39 575.88,646.59 579.03,645.69 582.14,644.69 585.23,643.59 588.27,642.39 591.27,641.09 594.23,639.69 597.14,638.19 600.00,636.60 602.81,634.92 605.56,633.15 608.25,631.28 610.88,629.34 613.44,627.30 615.93,625.18 618.36,622.99 620.71,620.71 622.99,618.36 625.18,615.93 627.30,613.44 629.34,610.88 631.28,608.25 633.15,605.56 634.92,602.81 636.60,600.00 638.19,597.14 639.69,594.23 641.09,591.27 642.39,588.27 643.59,585.23 644.69,582.14 645.69,579.03 646.59,575.88 647.39,572.71 648.08,569.51 648.66,566.29 649.14,563.05 649.52,559.80 649.79,556.54 649.95,553.27 650.00,550.00" fill="none" stroke="#1f4fff" stroke-width="2"/>
<polyline points="650.00,150.00 649.95,146.73 649.79,143.46 649.52,140.20 649.14,136.95 648.66,133.71 648.08,130.49 647.39,127.29 646.59,124.12 645.69,120.97 644.69,117.86 643.59,114.77 642.39,111.73 641.09,108.73 639.69,105.77 638.19,102.86 636.60,100.00 634.92,97.19 633.15,94.44 631.28,91.75 629.34,89.12 627.30,86.56 625.18,84.07 622.99,81.64 620.71,79.29 618.36,77.01 615.93,74.82 613.44,72.70 610.88,70.66 608.25,68.72 605.56,66.85 602.81,65.08 600.00,63.40 597.14,61.81 594.23,60.31 591.27,58.91 588.27,57.61 585.23,56.41 582.14,55.31 579.03,54.31 575.88,53.41 572.71,52.61 569.51,51.92 566.29,51.34 563.05,50.86 559.80,50.48 556.54,50.21 553.27,50.05 550.00,50.00" fill="none" stroke="#1f4fff" stroke-width="2"/>
<polyline points="150.00,50.00 146.73,50.05 143.46,50.21 140.20,50.48 136.95,50.86 133.71,51.34 130.49,51.92 127.29,52.61 124.12,53.41 120.97,54.31 117.86,55.31 114.77,56.41 111.73,57.61 108.73,58.91 105.77,60.31 102.86,61.81 100.00,63.40 97.19,65.08 94.44,66.85 91.75,68.72 89.12,70.66 86.56,72.70 84.07,74.82 81.64,77.01 79.29,79.29 77.01,81.64 74.82,84.07 72.70,86.56 70.66,89.12 68.72,91.75 66.85,94.44 65.08,97.19 63.40,100.00 61.81,102.86 60.31,105.77 58.91,108.73 57.61,111.73 56.41,114.77 55.31,117.86 54.31,120.97 53.41,124.12 52.61,127.29 51.92,130.49 51.34,133.71 50.86,136.95 50.48,140.20 50.21,143.46 50.05,146.73 50.00,150.00" fill="none" stroke="#1f4fff" stroke-width="2"/>
</svg>