<svg xmlns="http://www.w3.org/2000/svg" width="500.0" height="300.0" viewBox="0 0 500.0 300.0">
<rect width="100%" height="100%" fill="white"/>
<circle cx="150.00" cy="150.00" r="100.00" fill="none" stroke="#cccccc" stroke-width="1"/>
<circle cx="350.00" cy="150.00" r="100.00" fill="none" stroke="#cccccc" stroke-width="1"/>
<line x1="150.00" y1="50.00" x2="350.00" y2="50.00" stroke="#1f4fff" stroke-width="2"/>
<line x1="350.00" y1="250.00" x2="150.00" y2="250.00" stroke="#1f4fff" stroke-width="2"/>
<polyline points="350.00,50.00 356.54,50.21 363.05,50.86 369.51,51.92 375.88,53.41 382.14,55.31 388.27,57.61 394.23,60.31 400.00,63.40 405.56,66.85 410.88,70.66 415.93,74.82 420.71,79.29 425.18,84.07 429.34,89.12 433.15,94.44 436.60,100.00 439.69,105.77 442.39,111.73 444.69,117.86 446.59,124.12 448.08,130.49 449.14,136.95 449.79,143.46 450.00,150.00 449.79,156.54 449.14,163.05 448.08,169.51 446.59,175.88 444.69,182.14 442.39,188.27 439.69,194.23 436.60,200.00 433.15,205.56 429.34,210.88 425.18,215.93 420.71,220.71 415.93,225.18 410.88,229.34 405.56,233.15 400.00,236.60 394.23,239.69 388.27,242.39 382.14,244.69 375.88,246.59 369.51,248.08 363.05,249.14 356.54,249.79 350.00,250.00" fill="none" stroke="#1f4fff" stroke-width="2"/>
<polyline points="150.00,250.00 143.46,249.79 136.95,249.14 130.49,248.08 124.12,246.59 117.86,244.69 111.73,242.39 105.77,239.69 100.00,236.60 94.44,233.15 89.12,229.34 84.07,225.18 79.29,220.71 74.82,215.93 70.66,210.88 66.85,205.56 63.40,200.00 60.31,194.23 57.61,188.27 55.31,182.14 53.41,175.88 51.92,169.51 50.86,163.05 50.21,156.54 50.00,150.00 50.21,143.46 50.86,136.95 51.92,130.49 53.41,124.12 55.31,117.86 57.61,111.73 60.31,105.77 63.40,100.00 66.85,94.44 70.66,89.12 74.82,84.07 79.29,79.29 84.07,74.82 89.12,70.66 94.44,66.85 100.00,63.40 105.77,60.31 111.73,57.61 117.86,55.31 124.12,53.41 130.49,51.92 136.95,50.86 143.46,50.21 150.00,50.00" fill="none" stroke="#1f4fff" stroke-width="2"/>
</svg>